<?xml version="1.0" standalone="no"?>
<!DOCTYPE svg PUBLIC "-//W3C//DTD SVG 20010904//EN"
 "http://www.w3.org/TR/2001/REC-SVG-20010904/DTD/svg10.dtd">
<svg version="1.0" xmlns="http://www.w3.org/2000/svg"
 width="400.000000pt" height="400.000000pt" viewBox="0 0 400.000000 400.000000"
 preserveAspectRatio="xMidYMid meet">

<g transform="translate(0.000000,400.000000) scale(0.100000,-0.100000)"
fill="#000000" stroke="none">
<path d="M0 2000 l0 -2000 2000 0 2000 0 0 2000 0 2000 -2000 0 -2000 0 0
-2000z m1993 299 c46 -13 66 -46 49 -83 -25 -55 -159 -55 -184 0 -16 35 3 71
44 83 44 12 47 12 91 0z m-1145 -519 l-160 -480 -58 0 -58 0 160 480 160 480
58 0 58 0 -160 -480z m792 95 l0 -385 -70 0 -70 0 0 50 c0 61 -18 67 -48 16
-58 -98 -202 -94 -251 6 -19 40 -21 61 -21 210 0 153 2 168 23 209 46 86 171
120 280 74 16 -7 17 2 17 99 l0 106 70 0 70 0 0 -385z m840 290 l0 -95 80 0
80 0 0 -55 0 -55 -80 0 -80 0 0 -163 c0 -153 1 -165 21 -186 19 -20 29 -23 76
-19 51 4 54 3 59 -21 15 -74 17 -70 -23 -78 -59 -12 -148 -6 -186 12 -82 38
-96 82 -97 293 l0 162 -45 0 -45 0 0 55 0 55 45 0 45 0 0 95 0 95 75 0 75 0 0
-95z m598 -385 l-160 -480 -58 0 -58 0 160 480 160 480 58 0 58 0 -160 -480z
m656 453 c-15 -81 -31 -199 -28 -202 3 -3 38 28 78 68 l74 74 27 -53 c14 -28
25 -54 23 -56 -3 -2 -44 -22 -92 -44 -49 -23 -86 -44 -83 -47 3 -3 42 -22 87
-43 45 -21 83 -40 86 -43 3 -3 -7 -29 -21 -57 l-27 -53 -74 74 c-40 40 -75 71
-78 68 -2 -2 2 -38 9 -79 7 -41 15 -92 18 -112 l6 -38 -60 0 -60 0 6 33 c24
132 32 193 29 196 -3 3 -38 -28 -78 -68 l-74 -74 -27 53 c-14 28 -24 54 -21
57 3 3 41 22 86 43 45 21 84 40 87 43 3 3 -34 24 -83 47 -48 22 -89 42 -92 44
-2 2 9 28 23 56 l27 53 74 -74 c40 -40 75 -71 78 -68 3 3 -5 64 -29 197 l-6
32 60 0 61 0 -6 -27z m-1714 -453 l0 -290 -70 0 -70 0 0 290 0 290 70 0 70 0
0 -290z m-1768 -50 c21 -6 44 -21 53 -33 21 -29 20 -145 0 -174 -22 -31 -85
-47 -135 -33 -55 15 -70 41 -70 120 0 76 15 105 63 119 43 12 46 12 89 1z"/>
<path d="M1349 1951 c-23 -19 -24 -24 -24 -169 0 -133 2 -152 19 -171 29 -32
78 -28 121 10 l35 31 0 144 0 143 -30 16 c-40 21 -93 19 -121 -4z"/>
</g>
</svg>
